<svg xmlns="http://www.w3.org/2000/svg" width="460" height="460" viewBox="0 0 460 460" version="1.1"><path d="M 395.226 187.174 C 387.653 188.031, 380.877 191.237, 376.782 195.901 C 372.555 200.715, 371 204.983, 371 211.768 C 371 216.389, 371.553 218.452, 373.664 221.708 C 377.095 227, 381.091 229.172, 394.538 233.055 C 411.266 237.885, 415.564 239.739, 418.940 243.584 C 422.649 247.809, 422.924 252.027, 419.788 256.604 C 416.436 261.497, 412.295 263.002, 402.216 262.989 C 391.873 262.976, 385.417 261.220, 378.265 256.474 C 375.386 254.563, 372.808 253, 372.536 253 C 372.263 253, 371.081 254.881, 369.908 257.181 C 367.835 261.244, 367.827 261.403, 369.637 262.801 C 373.071 265.453, 385.787 270.975, 391.071 272.109 C 399.005 273.810, 412.455 272.802, 418.794 270.031 C 432.317 264.118, 437.042 249.189, 429.061 237.588 C 425.076 231.797, 420.593 229.591, 403.436 224.985 C 384.800 219.981, 382 218.026, 382 210.016 C 382 201.373, 386.795 197.107, 397.475 196.250 C 405.469 195.608, 413.661 197.399, 419.410 201.045 C 421.973 202.670, 424.233 204, 424.434 204 C 424.634 204, 425.718 202.234, 426.843 200.076 C 429.221 195.515, 429.316 195.645, 420.187 191.071 C 412.922 187.430, 404.532 186.121, 395.226 187.174 M 27 191.275 L 27 195.756 45.250 196.250 C 65.126 196.788, 67.839 197.372, 75.200 202.697 C 80.708 206.681, 84.277 213.287, 86.096 222.862 C 88.369 234.831, 83.669 249.935, 75.683 256.321 C 68.885 261.757, 65.968 262.486, 51 262.494 L 37.500 262.500 37.234 235.250 L 36.968 208 31.984 208 L 27 208 27 240 L 27 272 45.911 272 C 62.939 272, 65.403 271.782, 70.661 269.806 C 77.272 267.321, 82.250 264.369, 86.210 260.584 C 101.282 246.177, 100.366 210.884, 84.569 197.363 C 82.372 195.482, 77.632 192.516, 74.037 190.772 L 67.500 187.600 47.250 187.197 L 27 186.795 27 191.275 M 138.644 200.750 C 135.585 208.313, 130.122 221.700, 126.505 230.500 C 116.298 255.335, 110 270.986, 110 271.516 C 110 271.782, 112.367 272, 115.260 272 L 120.519 272 125.931 257.250 C 128.908 249.137, 131.688 242.038, 132.109 241.473 C 132.530 240.909, 134.425 236.184, 136.321 230.973 C 138.216 225.763, 141.357 217.675, 143.300 213 C 145.243 208.325, 148.195 200.563, 149.861 195.750 L 152.889 187 148.548 187 L 144.207 187 138.644 200.750 M 191.444 188.750 C 191.807 189.713, 197.561 199.645, 204.232 210.822 L 216.362 231.145 218.676 227.322 C 219.949 225.220, 220.962 222.825, 220.928 222 C 220.895 221.175, 218.906 217.125, 216.508 213 C 214.111 208.875, 209.835 201.338, 207.006 196.250 L 201.863 187 196.325 187 C 191.466 187, 190.867 187.215, 191.444 188.750 M 251.185 191.250 C 249.968 193.588, 246.728 199.279, 243.986 203.897 C 241.244 208.515, 239 212.484, 239 212.717 C 239 212.949, 237.735 215.021, 236.189 217.320 C 234.643 219.619, 230.818 226.068, 227.689 231.650 L 222 241.800 222 256.900 L 222 272 227.500 272 L 233 272 233 256.449 L 233 240.898 240.250 228.800 C 248.465 215.091, 249.222 213.800, 253.917 205.500 C 255.783 202.200, 257.853 198.825, 258.516 198 C 259.180 197.175, 260.953 194.363, 262.456 191.750 L 265.190 187 259.294 187 L 253.399 187 251.185 191.250 M 335.992 211.250 C 335.981 247.125, 334.444 256.489, 327.763 261.371 C 323.998 264.122, 314.583 264.727, 308.385 262.616 C 301.910 260.409, 301.487 260.506, 300.267 264.480 C 299.244 267.815, 299.341 268.048, 302.588 270.054 C 310.408 274.887, 327.922 274.392, 334.307 269.157 C 344.922 260.455, 345.288 258.860, 345.761 219.250 L 346.147 187 341.074 187 L 336 187 335.992 211.250 M 156.523 203.518 C 155.590 205.708, 154.454 208.439, 154 209.586 C 153.440 211, 153.814 213.095, 155.160 216.086 C 157.257 220.749, 164 237.921, 164 238.600 C 164 238.820, 159.252 239, 153.449 239 L 142.898 239 141.449 242.468 C 140.652 244.375, 140 246.175, 140 246.468 C 140 246.761, 146.044 247, 153.431 247 L 166.862 247 171.678 259.500 L 176.494 272 181.747 272 C 184.636 272, 186.998 271.663, 186.994 271.250 C 186.987 270.189, 179.255 250.406, 178.013 248.270 C 177.447 247.296, 174.753 240.875, 172.026 234 C 169.299 227.125, 165.077 216.558, 162.644 210.518 L 158.221 199.535 156.523 203.518 M 273 265.500 L 273 272 277.500 272 L 282 272 282 265.500 L 282 259 277.500 259 L 273 259 273 265.500" stroke="none" fill="#fcf9f8" fill-rule="evenodd"/><path d="M 0 230.002 L 0 460.004 230.250 459.752 L 460.500 459.500 460.752 229.750 L 461.004 -0 230.502 -0 L 0 0 0 230.002 M 0.491 230.500 C 0.492 357, 0.608 408.601, 0.750 345.170 C 0.892 281.738, 0.892 178.238, 0.750 115.170 C 0.608 52.101, 0.491 104, 0.491 230.500 M 395.226 187.174 C 387.653 188.031, 380.877 191.237, 376.782 195.901 C 372.555 200.715, 371 204.983, 371 211.768 C 371 216.389, 371.553 218.452, 373.664 221.708 C 377.095 227, 381.091 229.172, 394.538 233.055 C 411.266 237.885, 415.564 239.739, 418.940 243.584 C 422.649 247.809, 422.924 252.027, 419.788 256.604 C 416.436 261.497, 412.295 263.002, 402.216 262.989 C 391.873 262.976, 385.417 261.220, 378.265 256.474 C 375.386 254.563, 372.808 253, 372.536 253 C 372.263 253, 371.081 254.881, 369.908 257.181 C 367.835 261.244, 367.827 261.403, 369.637 262.801 C 373.071 265.453, 385.787 270.975, 391.071 272.109 C 399.005 273.810, 412.455 272.802, 418.794 270.031 C 432.317 264.118, 437.042 249.189, 429.061 237.588 C 425.076 231.797, 420.593 229.591, 403.436 224.985 C 384.800 219.981, 382 218.026, 382 210.016 C 382 201.373, 386.795 197.107, 397.475 196.250 C 405.469 195.608, 413.661 197.399, 419.410 201.045 C 421.973 202.670, 424.233 204, 424.434 204 C 424.634 204, 425.718 202.234, 426.843 200.076 C 429.221 195.515, 429.316 195.645, 420.187 191.071 C 412.922 187.430, 404.532 186.121, 395.226 187.174 M 27 191.275 L 27 195.756 45.250 196.250 C 65.126 196.788, 67.839 197.372, 75.200 202.697 C 80.708 206.681, 84.277 213.287, 86.096 222.862 C 88.369 234.831, 83.669 249.935, 75.683 256.321 C 68.885 261.757, 65.968 262.486, 51 262.494 L 37.500 262.500 37.234 235.250 L 36.968 208 31.984 208 L 27 208 27 240 L 27 272 45.911 272 C 62.939 272, 65.403 271.782, 70.661 269.806 C 77.272 267.321, 82.250 264.369, 86.210 260.584 C 101.282 246.177, 100.366 210.884, 84.569 197.363 C 82.372 195.482, 77.632 192.516, 74.037 190.772 L 67.500 187.600 47.250 187.197 L 27 186.795 27 191.275 M 138.644 200.750 C 135.585 208.313, 130.122 221.700, 126.505 230.500 C 116.298 255.335, 110 270.986, 110 271.516 C 110 271.782, 112.367 272, 115.260 272 L 120.519 272 125.931 257.250 C 128.908 249.137, 131.688 242.038, 132.109 241.473 C 132.530 240.909, 134.425 236.184, 136.321 230.973 C 138.216 225.763, 141.357 217.675, 143.300 213 C 145.243 208.325, 148.195 200.563, 149.861 195.750 L 152.889 187 148.548 187 L 144.207 187 138.644 200.750 M 191.444 188.750 C 191.807 189.713, 197.561 199.645, 204.232 210.822 L 216.362 231.145 218.676 227.322 C 219.949 225.220, 220.962 222.825, 220.928 222 C 220.895 221.175, 218.906 217.125, 216.508 213 C 214.111 208.875, 209.835 201.338, 207.006 196.250 L 201.863 187 196.325 187 C 191.466 187, 190.867 187.215, 191.444 188.750 M 251.185 191.250 C 249.968 193.588, 246.728 199.279, 243.986 203.897 C 241.244 208.515, 239 212.484, 239 212.717 C 239 212.949, 237.735 215.021, 236.189 217.320 C 234.643 219.619, 230.818 226.068, 227.689 231.650 L 222 241.800 222 256.900 L 222 272 227.500 272 L 233 272 233 256.449 L 233 240.898 240.250 228.800 C 248.465 215.091, 249.222 213.800, 253.917 205.500 C 255.783 202.200, 257.853 198.825, 258.516 198 C 259.180 197.175, 260.953 194.363, 262.456 191.750 L 265.190 187 259.294 187 L 253.399 187 251.185 191.250 M 335.992 211.250 C 335.981 247.125, 334.444 256.489, 327.763 261.371 C 323.998 264.122, 314.583 264.727, 308.385 262.616 C 301.910 260.409, 301.487 260.506, 300.267 264.480 C 299.244 267.815, 299.341 268.048, 302.588 270.054 C 310.408 274.887, 327.922 274.392, 334.307 269.157 C 344.922 260.455, 345.288 258.860, 345.761 219.250 L 346.147 187 341.074 187 L 336 187 335.992 211.250 M 156.523 203.518 C 155.590 205.708, 154.454 208.439, 154 209.586 C 153.440 211, 153.814 213.095, 155.160 216.086 C 157.257 220.749, 164 237.921, 164 238.600 C 164 238.820, 159.252 239, 153.449 239 L 142.898 239 141.449 242.468 C 140.652 244.375, 140 246.175, 140 246.468 C 140 246.761, 146.044 247, 153.431 247 L 166.862 247 171.678 259.500 L 176.494 272 181.747 272 C 184.636 272, 186.998 271.663, 186.994 271.250 C 186.987 270.189, 179.255 250.406, 178.013 248.270 C 177.447 247.296, 174.753 240.875, 172.026 234 C 169.299 227.125, 165.077 216.558, 162.644 210.518 L 158.221 199.535 156.523 203.518 M 273 265.500 L 273 272 277.500 272 L 282 272 282 265.500 L 282 259 277.500 259 L 273 259 273 265.500" stroke="none" fill="#fc5c4c" fill-rule="evenodd"/></svg>